<svg width="188" height="159" viewBox="0 0 188 159" fill="none" xmlns="http://www.w3.org/2000/svg">
<g filter="url(#filter0_d_1720_6630)">
<path d="M91.316 35.674L92.3828 34.714L90.676 34.9273L90.8894 34.0739L89.9293 34.6073L88.8625 34.0739L88.4358 34.714L86.729 34.2873L87.5825 35.354L86.1956 35.8874L87.2624 36.4208L86.9424 37.7009L88.1158 37.1675L88.8625 38.981L90.1426 36.3141L92.3828 36.4208L91.316 35.674Z" fill="#707070"/>
<path d="M53.8962 79.4592C55.2839 80.8469 57.5337 80.8469 58.9214 79.4592L89.2447 49.1359L97.3214 57.2121L113.312 41.2209L91.8726 19.7816L75.8821 35.7739L84.2189 44.1119L53.8956 74.434C52.5085 75.8217 52.5085 78.0715 53.8962 79.4592Z" fill="#AE724A"/>
<path d="M89.2891 49.0917L80.6475 57.7339L75.6217 52.7087L84.2639 44.0666L89.2891 49.0917Z" fill="#70381C"/>
<path d="M96.4327 59.8773C95.4515 58.8961 95.4515 57.3054 96.4327 56.3238L112.423 40.3332C113.405 39.352 114.996 39.352 115.977 40.3332C116.958 41.3144 116.958 42.9055 115.977 43.8867L99.9862 59.8779C99.005 60.8585 97.4139 60.8585 96.4327 59.8773Z" fill="#3C1E0C"/>
<path d="M73.3352 36.7802C72.354 35.799 72.354 34.2079 73.3352 33.2267L89.3258 17.2359C90.307 16.2547 91.8981 16.2547 92.8793 17.2359C93.8605 18.2171 93.8605 19.8076 92.8793 20.7894L76.8887 36.7802C75.9075 37.7614 74.3164 37.7614 73.3352 36.7802Z" fill="#3C1E0C"/>
</g>
<path d="M114.28 77.4027C113.368 77.4027 114.28 77.4027 114.28 77.4027C114.28 77.4027 114.28 74.0424 114.28 68.9976C114.28 63.9614 114.28 60.6011 114.28 60.6011C114.28 60.6011 113.421 60.6011 114.28 60.6011C126.185 60.6011 135.093 64.6965 135.093 68.9809C135.093 73.4123 126.08 77.4027 114.28 77.4027Z" fill="#357A33"/>
<g filter="url(#filter1_d_1720_6630)">
<path d="M135.145 69.0019C135.145 73.6415 125.815 77.4027 114.306 77.4027C102.797 77.4027 93.4668 73.6415 93.4668 69.0019C93.4668 64.3623 102.797 60.6011 114.306 60.6011C125.815 60.6011 135.145 64.3623 135.145 69.0019Z" fill="#3C1E0C"/>
</g>
<path d="M130.978 69.0019C130.978 72.7136 123.514 75.7225 114.306 75.7225C105.099 75.7225 97.6348 72.7136 97.6348 69.0019C97.6348 65.2902 105.099 62.2812 114.306 62.2812C123.514 62.2812 130.978 65.2902 130.978 69.0019Z" fill="#70381C"/>
<path d="M129.414 69.0017C129.414 72.3655 122.65 75.0923 114.306 75.0923C105.961 75.0923 99.1973 72.3655 99.1973 69.0017C99.1973 65.638 105.961 62.9111 114.306 62.9111C122.65 62.9111 129.414 65.638 129.414 69.0017Z" fill="#AE724A"/>
<path d="M77.6548 103.138C77.598 102.565 77.3542 102.12 76.9233 101.803C76.4924 101.485 75.9077 101.327 75.169 101.327C74.6671 101.327 74.2434 101.398 73.8977 101.54C73.5521 101.677 73.2869 101.869 73.1023 102.115C72.9223 102.361 72.8324 102.641 72.8324 102.953C72.8229 103.214 72.8774 103.441 72.9957 103.635C73.1188 103.829 73.2869 103.997 73.5 104.139C73.7131 104.277 73.9593 104.397 74.2386 104.501C74.518 104.601 74.8163 104.686 75.1335 104.757L76.4403 105.07C77.0748 105.212 77.6572 105.401 78.1875 105.638C78.7178 105.875 79.1771 106.166 79.5653 106.511C79.9536 106.857 80.2543 107.264 80.4673 107.733C80.6851 108.202 80.7964 108.739 80.8011 109.345C80.7964 110.235 80.5691 111.007 80.1193 111.661C79.6742 112.309 79.0303 112.813 78.1875 113.173C77.3494 113.528 76.3385 113.706 75.1548 113.706C73.9806 113.706 72.9579 113.526 72.0866 113.166C71.2202 112.806 70.5431 112.274 70.0554 111.568C69.5724 110.858 69.3191 109.98 69.2955 108.933H72.2713C72.3045 109.421 72.4441 109.828 72.6903 110.155C72.9413 110.477 73.2751 110.721 73.6918 110.886C74.1132 111.047 74.589 111.128 75.1193 111.128C75.6402 111.128 76.0923 111.052 76.4759 110.901C76.8641 110.749 77.1648 110.538 77.3778 110.268C77.5909 109.999 77.6974 109.688 77.6974 109.338C77.6974 109.011 77.6004 108.737 77.4062 108.514C77.2169 108.292 76.9375 108.102 76.5682 107.946C76.2036 107.79 75.7562 107.648 75.2259 107.52L73.642 107.122C72.4157 106.824 71.4474 106.357 70.7372 105.723C70.027 105.089 69.6742 104.234 69.679 103.159C69.6742 102.278 69.9086 101.509 70.3821 100.851C70.8603 100.193 71.5161 99.679 72.3494 99.3097C73.1828 98.9403 74.1297 98.7557 75.1903 98.7557C76.2699 98.7557 77.2121 98.9403 78.017 99.3097C78.8267 99.679 79.4564 100.193 79.9062 100.851C80.3561 101.509 80.5881 102.271 80.6023 103.138H77.6548ZM87.7418 113.713C86.6386 113.713 85.6845 113.479 84.8796 113.01C84.0794 112.536 83.4615 111.878 83.0259 111.036C82.5903 110.188 82.3725 109.205 82.3725 108.088C82.3725 106.961 82.5903 105.976 83.0259 105.134C83.4615 104.286 84.0794 103.628 84.8796 103.159C85.6845 102.686 86.6386 102.449 87.7418 102.449C88.8451 102.449 89.7968 102.686 90.5969 103.159C91.4019 103.628 92.0221 104.286 92.4577 105.134C92.8933 105.976 93.1112 106.961 93.1112 108.088C93.1112 109.205 92.8933 110.188 92.4577 111.036C92.0221 111.878 91.4019 112.536 90.5969 113.01C89.7968 113.479 88.8451 113.713 87.7418 113.713ZM87.756 111.369C88.2579 111.369 88.677 111.227 89.0131 110.943C89.3493 110.654 89.6026 110.261 89.7731 109.764C89.9483 109.267 90.0359 108.701 90.0359 108.067C90.0359 107.432 89.9483 106.866 89.7731 106.369C89.6026 105.872 89.3493 105.479 89.0131 105.19C88.677 104.902 88.2579 104.757 87.756 104.757C87.2494 104.757 86.8233 104.902 86.4776 105.19C86.1367 105.479 85.8787 105.872 85.7035 106.369C85.533 106.866 85.4478 107.432 85.4478 108.067C85.4478 108.701 85.533 109.267 85.7035 109.764C85.8787 110.261 86.1367 110.654 86.4776 110.943C86.8233 111.227 87.2494 111.369 87.756 111.369ZM98.104 98.9545V113.5H95.0785V98.9545H98.104ZM104.548 113.678C103.719 113.678 102.969 113.464 102.296 113.038C101.629 112.607 101.098 111.975 100.705 111.142C100.317 110.304 100.123 109.277 100.123 108.06C100.123 106.81 100.324 105.77 100.727 104.942C101.129 104.108 101.664 103.486 102.332 103.074C103.004 102.657 103.74 102.449 104.54 102.449C105.151 102.449 105.66 102.553 106.067 102.761C106.479 102.965 106.811 103.221 107.062 103.528C107.317 103.831 107.512 104.13 107.644 104.423H107.737V98.9545H110.755V113.5H107.772V111.753H107.644C107.502 112.056 107.301 112.357 107.04 112.655C106.785 112.948 106.451 113.192 106.039 113.386C105.632 113.58 105.135 113.678 104.548 113.678ZM105.506 111.27C105.994 111.27 106.406 111.137 106.742 110.872C107.083 110.602 107.344 110.226 107.523 109.743C107.708 109.26 107.8 108.694 107.8 108.045C107.8 107.397 107.71 106.833 107.531 106.355C107.351 105.877 107.09 105.508 106.749 105.247C106.408 104.987 105.994 104.857 105.506 104.857C105.009 104.857 104.59 104.991 104.249 105.261C103.908 105.531 103.65 105.905 103.475 106.384C103.3 106.862 103.212 107.416 103.212 108.045C103.212 108.68 103.3 109.241 103.475 109.729C103.655 110.212 103.913 110.59 104.249 110.865C104.59 111.135 105.009 111.27 105.506 111.27ZM116.858 98.9545L116.581 109.139H113.981L113.697 98.9545H116.858ZM115.281 113.685C114.812 113.685 114.41 113.519 114.074 113.188C113.737 112.851 113.572 112.449 113.576 111.98C113.572 111.516 113.737 111.118 114.074 110.787C114.41 110.455 114.812 110.29 115.281 110.29C115.731 110.29 116.126 110.455 116.467 110.787C116.808 111.118 116.981 111.516 116.985 111.98C116.981 112.293 116.898 112.579 116.737 112.839C116.581 113.095 116.375 113.301 116.119 113.457C115.863 113.609 115.584 113.685 115.281 113.685Z" fill="white"/>
<path d="M0.909091 139.864H2.52273L5.75 145.295H5.88636L9.11364 139.864H10.7273L6.52273 146.705V151.5H5.11364V146.705L0.909091 139.864ZM14.679 151.682C13.8911 151.682 13.1998 151.494 12.6051 151.119C12.0142 150.744 11.5521 150.22 11.2188 149.545C10.8892 148.871 10.7244 148.083 10.7244 147.182C10.7244 146.273 10.8892 145.479 11.2188 144.801C11.5521 144.123 12.0142 143.597 12.6051 143.222C13.1998 142.847 13.8911 142.659 14.679 142.659C15.4669 142.659 16.1563 142.847 16.7472 143.222C17.3419 143.597 17.804 144.123 18.1335 144.801C18.4669 145.479 18.6335 146.273 18.6335 147.182C18.6335 148.083 18.4669 148.871 18.1335 149.545C17.804 150.22 17.3419 150.744 16.7472 151.119C16.1563 151.494 15.4669 151.682 14.679 151.682ZM14.679 150.477C15.2775 150.477 15.7699 150.324 16.1562 150.017C16.5426 149.71 16.8286 149.307 17.0142 148.807C17.1998 148.307 17.2926 147.765 17.2926 147.182C17.2926 146.598 17.1998 146.055 17.0142 145.551C16.8286 145.047 16.5426 144.64 16.1562 144.33C15.7699 144.019 15.2775 143.864 14.679 143.864C14.0805 143.864 13.5881 144.019 13.2017 144.33C12.8153 144.64 12.5294 145.047 12.3438 145.551C12.1581 146.055 12.0653 146.598 12.0653 147.182C12.0653 147.765 12.1581 148.307 12.3438 148.807C12.5294 149.307 12.8153 149.71 13.2017 150.017C13.5881 150.324 14.0805 150.477 14.679 150.477ZM26.1804 147.932V142.773H27.5213V151.5H26.1804V150.023H26.0895C25.8849 150.466 25.5668 150.843 25.1349 151.153C24.7031 151.46 24.1577 151.614 23.4986 151.614C22.9531 151.614 22.4683 151.494 22.044 151.256C21.6198 151.013 21.2865 150.65 21.044 150.165C20.8016 149.676 20.6804 149.061 20.6804 148.318V142.773H22.0213V148.227C22.0213 148.864 22.1993 149.371 22.5554 149.75C22.9152 150.129 23.3736 150.318 23.9304 150.318C24.2637 150.318 24.6027 150.233 24.9474 150.062C25.2959 149.892 25.5876 149.631 25.8224 149.278C26.0611 148.926 26.1804 148.477 26.1804 147.932ZM29.9773 151.5V142.773H31.2727V144.091H31.3636C31.5227 143.659 31.8106 143.309 32.2273 143.04C32.6439 142.771 33.1136 142.636 33.6364 142.636C33.7348 142.636 33.858 142.638 34.0057 142.642C34.1534 142.646 34.2652 142.652 34.3409 142.659V144.023C34.2955 144.011 34.1913 143.994 34.0284 143.972C33.8693 143.945 33.7008 143.932 33.5227 143.932C33.0985 143.932 32.7197 144.021 32.3864 144.199C32.0568 144.373 31.7955 144.616 31.6023 144.926C31.4129 145.233 31.3182 145.583 31.3182 145.977V151.5H29.9773ZM40.6122 151.5V139.864H41.9531V144.159H42.0668C42.1652 144.008 42.3016 143.814 42.4759 143.58C42.6539 143.341 42.9077 143.129 43.2372 142.943C43.5705 142.754 44.0213 142.659 44.5895 142.659C45.3243 142.659 45.9721 142.843 46.5327 143.21C47.0933 143.578 47.5308 144.098 47.8452 144.773C48.1596 145.447 48.3168 146.242 48.3168 147.159C48.3168 148.083 48.1596 148.884 47.8452 149.562C47.5308 150.237 47.0952 150.759 46.5384 151.131C45.9815 151.498 45.3395 151.682 44.6122 151.682C44.0516 151.682 43.6027 151.589 43.2656 151.403C42.9285 151.214 42.669 151 42.4872 150.761C42.3054 150.519 42.1652 150.318 42.0668 150.159H41.9077V151.5H40.6122ZM41.9304 147.136C41.9304 147.795 42.027 148.377 42.2202 148.881C42.4134 149.381 42.6955 149.773 43.0668 150.057C43.438 150.337 43.8925 150.477 44.4304 150.477C44.991 150.477 45.4588 150.33 45.8338 150.034C46.2126 149.735 46.4967 149.333 46.6861 148.83C46.8793 148.322 46.9759 147.758 46.9759 147.136C46.9759 146.523 46.8812 145.97 46.6918 145.477C46.5062 144.981 46.224 144.589 45.8452 144.301C45.4702 144.009 44.9986 143.864 44.4304 143.864C43.8849 143.864 43.4266 144.002 43.0554 144.278C42.6842 144.551 42.4039 144.934 42.2145 145.426C42.0251 145.915 41.9304 146.485 41.9304 147.136ZM50.3679 151.5V142.773H51.7088V151.5H50.3679ZM51.0497 141.318C50.7884 141.318 50.563 141.229 50.3736 141.051C50.188 140.873 50.0952 140.659 50.0952 140.409C50.0952 140.159 50.188 139.945 50.3736 139.767C50.563 139.589 50.7884 139.5 51.0497 139.5C51.3111 139.5 51.5346 139.589 51.7202 139.767C51.9096 139.945 52.0043 140.159 52.0043 140.409C52.0043 140.659 51.9096 140.873 51.7202 141.051C51.5346 141.229 51.3111 141.318 51.0497 141.318ZM57.4602 151.682C56.733 151.682 56.0909 151.498 55.5341 151.131C54.9773 150.759 54.5417 150.237 54.2273 149.562C53.9129 148.884 53.7557 148.083 53.7557 147.159C53.7557 146.242 53.9129 145.447 54.2273 144.773C54.5417 144.098 54.9792 143.578 55.5398 143.21C56.1004 142.843 56.7481 142.659 57.483 142.659C58.0511 142.659 58.5 142.754 58.8295 142.943C59.1629 143.129 59.4167 143.341 59.5909 143.58C59.7689 143.814 59.9072 144.008 60.0057 144.159H60.1193V139.864H61.4602V151.5H60.1648V150.159H60.0057C59.9072 150.318 59.767 150.519 59.5852 150.761C59.4034 151 59.1439 151.214 58.8068 151.403C58.4697 151.589 58.0208 151.682 57.4602 151.682ZM57.642 150.477C58.1799 150.477 58.6345 150.337 59.0057 150.057C59.3769 149.773 59.6591 149.381 59.8523 148.881C60.0455 148.377 60.142 147.795 60.142 147.136C60.142 146.485 60.0473 145.915 59.858 145.426C59.6686 144.934 59.3883 144.551 59.017 144.278C58.6458 144.002 58.1875 143.864 57.642 143.864C57.0739 143.864 56.6004 144.009 56.2216 144.301C55.8466 144.589 55.5644 144.981 55.375 145.477C55.1894 145.97 55.0966 146.523 55.0966 147.136C55.0966 147.758 55.1913 148.322 55.3807 148.83C55.5739 149.333 55.858 149.735 56.233 150.034C56.6117 150.33 57.0814 150.477 57.642 150.477ZM70.5795 151.5L67.9205 142.773H69.3295L71.2159 149.455H71.3068L73.1705 142.773H74.6023L76.4432 149.432H76.5341L78.4205 142.773H79.8295L77.1705 151.5H75.8523L73.9432 144.795H73.8068L71.8977 151.5H70.5795ZM84.1705 151.705C83.6174 151.705 83.1155 151.6 82.6648 151.392C82.214 151.18 81.8561 150.875 81.5909 150.477C81.3258 150.076 81.1932 149.591 81.1932 149.023C81.1932 148.523 81.2917 148.117 81.4886 147.807C81.6856 147.492 81.9489 147.246 82.2784 147.068C82.608 146.89 82.9716 146.758 83.3693 146.67C83.7708 146.58 84.1742 146.508 84.5795 146.455C85.1098 146.386 85.5398 146.335 85.8693 146.301C86.2027 146.263 86.4451 146.201 86.5966 146.114C86.7519 146.027 86.8295 145.875 86.8295 145.659V145.614C86.8295 145.053 86.6761 144.617 86.3693 144.307C86.0663 143.996 85.6061 143.841 84.9886 143.841C84.3485 143.841 83.8466 143.981 83.483 144.261C83.1193 144.542 82.8636 144.841 82.7159 145.159L81.4432 144.705C81.6705 144.174 81.9735 143.761 82.3523 143.466C82.7348 143.167 83.1515 142.958 83.6023 142.841C84.0568 142.72 84.5038 142.659 84.9432 142.659C85.2235 142.659 85.5455 142.693 85.9091 142.761C86.2765 142.826 86.6307 142.96 86.9716 143.165C87.3163 143.369 87.6023 143.678 87.8295 144.091C88.0568 144.504 88.1705 145.057 88.1705 145.75V151.5H86.8295V150.318H86.7614C86.6705 150.508 86.5189 150.71 86.3068 150.926C86.0947 151.142 85.8125 151.326 85.4602 151.477C85.108 151.629 84.678 151.705 84.1705 151.705ZM84.375 150.5C84.9053 150.5 85.3523 150.396 85.7159 150.188C86.0833 149.979 86.3598 149.71 86.5455 149.381C86.7348 149.051 86.8295 148.705 86.8295 148.341V147.114C86.7727 147.182 86.6477 147.244 86.4545 147.301C86.2652 147.354 86.0455 147.402 85.7955 147.443C85.5492 147.481 85.3087 147.515 85.0739 147.545C84.8428 147.572 84.6553 147.595 84.5114 147.614C84.1629 147.659 83.8371 147.733 83.5341 147.835C83.2348 147.934 82.9924 148.083 82.8068 148.284C82.625 148.481 82.5341 148.75 82.5341 149.091C82.5341 149.557 82.7064 149.909 83.0511 150.148C83.3996 150.383 83.8409 150.5 84.375 150.5ZM96.7997 144.727L95.5952 145.068C95.5194 144.867 95.4077 144.672 95.2599 144.483C95.116 144.29 94.919 144.131 94.669 144.006C94.419 143.881 94.099 143.818 93.7088 143.818C93.1747 143.818 92.7296 143.941 92.3736 144.188C92.0213 144.43 91.8452 144.739 91.8452 145.114C91.8452 145.447 91.9664 145.71 92.2088 145.903C92.4512 146.097 92.83 146.258 93.3452 146.386L94.6406 146.705C95.4209 146.894 96.0024 147.184 96.3849 147.574C96.7675 147.96 96.9588 148.458 96.9588 149.068C96.9588 149.568 96.8149 150.015 96.527 150.409C96.2429 150.803 95.8452 151.114 95.3338 151.341C94.8224 151.568 94.2277 151.682 93.5497 151.682C92.6596 151.682 91.9228 151.489 91.3395 151.102C90.7562 150.716 90.3868 150.152 90.2315 149.409L91.5043 149.091C91.6255 149.561 91.8546 149.913 92.1918 150.148C92.5327 150.383 92.9777 150.5 93.527 150.5C94.152 150.5 94.6482 150.367 95.0156 150.102C95.3868 149.833 95.5724 149.511 95.5724 149.136C95.5724 148.833 95.4664 148.58 95.2543 148.375C95.0421 148.167 94.7164 148.011 94.277 147.909L92.8224 147.568C92.0232 147.379 91.4361 147.085 91.0611 146.688C90.6899 146.286 90.5043 145.784 90.5043 145.182C90.5043 144.689 90.6425 144.254 90.919 143.875C91.1993 143.496 91.58 143.199 92.0611 142.983C92.5459 142.767 93.0952 142.659 93.7088 142.659C94.5724 142.659 95.2505 142.848 95.7429 143.227C96.2391 143.606 96.5914 144.106 96.7997 144.727ZM109.659 144.727L108.455 145.068C108.379 144.867 108.267 144.672 108.119 144.483C107.975 144.29 107.778 144.131 107.528 144.006C107.278 143.881 106.958 143.818 106.568 143.818C106.034 143.818 105.589 143.941 105.233 144.188C104.881 144.43 104.705 144.739 104.705 145.114C104.705 145.447 104.826 145.71 105.068 145.903C105.311 146.097 105.689 146.258 106.205 146.386L107.5 146.705C108.28 146.894 108.862 147.184 109.244 147.574C109.627 147.96 109.818 148.458 109.818 149.068C109.818 149.568 109.674 150.015 109.386 150.409C109.102 150.803 108.705 151.114 108.193 151.341C107.682 151.568 107.087 151.682 106.409 151.682C105.519 151.682 104.782 151.489 104.199 151.102C103.616 150.716 103.246 150.152 103.091 149.409L104.364 149.091C104.485 149.561 104.714 149.913 105.051 150.148C105.392 150.383 105.837 150.5 106.386 150.5C107.011 150.5 107.508 150.367 107.875 150.102C108.246 149.833 108.432 149.511 108.432 149.136C108.432 148.833 108.326 148.58 108.114 148.375C107.902 148.167 107.576 148.011 107.136 147.909L105.682 147.568C104.883 147.379 104.295 147.085 103.92 146.688C103.549 146.286 103.364 145.784 103.364 145.182C103.364 144.689 103.502 144.254 103.778 143.875C104.059 143.496 104.439 143.199 104.92 142.983C105.405 142.767 105.955 142.659 106.568 142.659C107.432 142.659 108.11 142.848 108.602 143.227C109.098 143.606 109.451 144.106 109.659 144.727ZM117.337 147.932V142.773H118.678V151.5H117.337V150.023H117.246C117.041 150.466 116.723 150.843 116.291 151.153C115.859 151.46 115.314 151.614 114.655 151.614C114.109 151.614 113.625 151.494 113.2 151.256C112.776 151.013 112.443 150.65 112.2 150.165C111.958 149.676 111.837 149.061 111.837 148.318V142.773H113.178V148.227C113.178 148.864 113.356 149.371 113.712 149.75C114.071 150.129 114.53 150.318 115.087 150.318C115.42 150.318 115.759 150.233 116.104 150.062C116.452 149.892 116.744 149.631 116.979 149.278C117.217 148.926 117.337 148.477 117.337 147.932ZM124.679 151.682C123.861 151.682 123.156 151.489 122.565 151.102C121.974 150.716 121.52 150.184 121.202 149.506C120.884 148.828 120.724 148.053 120.724 147.182C120.724 146.295 120.887 145.513 121.213 144.835C121.543 144.153 122.001 143.621 122.588 143.239C123.179 142.852 123.868 142.659 124.656 142.659C125.27 142.659 125.823 142.773 126.315 143C126.808 143.227 127.211 143.545 127.526 143.955C127.84 144.364 128.035 144.841 128.111 145.386H126.77C126.668 144.989 126.44 144.636 126.088 144.33C125.74 144.019 125.27 143.864 124.679 143.864C124.156 143.864 123.698 144 123.304 144.273C122.914 144.542 122.609 144.922 122.389 145.415C122.173 145.903 122.065 146.477 122.065 147.136C122.065 147.811 122.171 148.398 122.384 148.898C122.599 149.398 122.902 149.786 123.293 150.062C123.687 150.339 124.149 150.477 124.679 150.477C125.027 150.477 125.344 150.417 125.628 150.295C125.912 150.174 126.152 150 126.349 149.773C126.546 149.545 126.687 149.273 126.77 148.955H128.111C128.035 149.47 127.848 149.934 127.548 150.347C127.253 150.756 126.861 151.081 126.372 151.324C125.887 151.562 125.323 151.682 124.679 151.682ZM133.616 151.682C132.798 151.682 132.094 151.489 131.503 151.102C130.912 150.716 130.457 150.184 130.139 149.506C129.821 148.828 129.662 148.053 129.662 147.182C129.662 146.295 129.825 145.513 130.151 144.835C130.48 144.153 130.938 143.621 131.526 143.239C132.116 142.852 132.806 142.659 133.594 142.659C134.207 142.659 134.76 142.773 135.253 143C135.745 143.227 136.149 143.545 136.463 143.955C136.777 144.364 136.973 144.841 137.048 145.386H135.707C135.605 144.989 135.378 144.636 135.026 144.33C134.677 144.019 134.207 143.864 133.616 143.864C133.094 143.864 132.635 144 132.241 144.273C131.851 144.542 131.546 144.922 131.327 145.415C131.111 145.903 131.003 146.477 131.003 147.136C131.003 147.811 131.109 148.398 131.321 148.898C131.537 149.398 131.84 149.786 132.23 150.062C132.624 150.339 133.086 150.477 133.616 150.477C133.965 150.477 134.281 150.417 134.565 150.295C134.849 150.174 135.09 150 135.287 149.773C135.484 149.545 135.624 149.273 135.707 148.955H137.048C136.973 149.47 136.785 149.934 136.486 150.347C136.19 150.756 135.798 151.081 135.31 151.324C134.825 151.562 134.26 151.682 133.616 151.682ZM142.668 151.682C141.827 151.682 141.101 151.496 140.491 151.125C139.885 150.75 139.418 150.227 139.088 149.557C138.762 148.883 138.599 148.098 138.599 147.205C138.599 146.311 138.762 145.523 139.088 144.841C139.418 144.155 139.876 143.621 140.463 143.239C141.054 142.852 141.743 142.659 142.531 142.659C142.986 142.659 143.435 142.735 143.878 142.886C144.321 143.038 144.724 143.284 145.088 143.625C145.452 143.962 145.741 144.409 145.957 144.966C146.173 145.523 146.281 146.208 146.281 147.023V147.591H139.554V146.432H144.918C144.918 145.939 144.819 145.5 144.622 145.114C144.429 144.727 144.152 144.422 143.793 144.199C143.437 143.975 143.016 143.864 142.531 143.864C141.997 143.864 141.535 143.996 141.145 144.261C140.759 144.523 140.461 144.864 140.253 145.284C140.045 145.705 139.94 146.155 139.94 146.636V147.409C139.94 148.068 140.054 148.627 140.281 149.085C140.512 149.54 140.832 149.886 141.241 150.125C141.651 150.36 142.126 150.477 142.668 150.477C143.02 150.477 143.338 150.428 143.622 150.33C143.91 150.227 144.158 150.076 144.366 149.875C144.575 149.67 144.736 149.417 144.849 149.114L146.145 149.477C146.009 149.917 145.779 150.303 145.457 150.636C145.135 150.966 144.738 151.223 144.264 151.409C143.791 151.591 143.259 151.682 142.668 151.682ZM154.503 144.727L153.298 145.068C153.223 144.867 153.111 144.672 152.963 144.483C152.819 144.29 152.622 144.131 152.372 144.006C152.122 143.881 151.802 143.818 151.412 143.818C150.878 143.818 150.433 143.941 150.077 144.188C149.724 144.43 149.548 144.739 149.548 145.114C149.548 145.447 149.67 145.71 149.912 145.903C150.154 146.097 150.533 146.258 151.048 146.386L152.344 146.705C153.124 146.894 153.705 147.184 154.088 147.574C154.471 147.96 154.662 148.458 154.662 149.068C154.662 149.568 154.518 150.015 154.23 150.409C153.946 150.803 153.548 151.114 153.037 151.341C152.526 151.568 151.931 151.682 151.253 151.682C150.363 151.682 149.626 151.489 149.043 151.102C148.459 150.716 148.09 150.152 147.935 149.409L149.207 149.091C149.329 149.561 149.558 149.913 149.895 150.148C150.236 150.383 150.681 150.5 151.23 150.5C151.855 150.5 152.351 150.367 152.719 150.102C153.09 149.833 153.276 149.511 153.276 149.136C153.276 148.833 153.17 148.58 152.957 148.375C152.745 148.167 152.42 148.011 151.98 147.909L150.526 147.568C149.726 147.379 149.139 147.085 148.764 146.688C148.393 146.286 148.207 145.784 148.207 145.182C148.207 144.689 148.346 144.254 148.622 143.875C148.902 143.496 149.283 143.199 149.764 142.983C150.249 142.767 150.798 142.659 151.412 142.659C152.276 142.659 152.954 142.848 153.446 143.227C153.942 143.606 154.295 144.106 154.503 144.727ZM162.862 144.727L161.658 145.068C161.582 144.867 161.47 144.672 161.322 144.483C161.179 144.29 160.982 144.131 160.732 144.006C160.482 143.881 160.161 143.818 159.771 143.818C159.237 143.818 158.792 143.941 158.436 144.188C158.084 144.43 157.908 144.739 157.908 145.114C157.908 145.447 158.029 145.71 158.271 145.903C158.514 146.097 158.893 146.258 159.408 146.386L160.703 146.705C161.483 146.894 162.065 147.184 162.447 147.574C162.83 147.96 163.021 148.458 163.021 149.068C163.021 149.568 162.877 150.015 162.589 150.409C162.305 150.803 161.908 151.114 161.396 151.341C160.885 151.568 160.29 151.682 159.612 151.682C158.722 151.682 157.985 151.489 157.402 151.102C156.819 150.716 156.449 150.152 156.294 149.409L157.567 149.091C157.688 149.561 157.917 149.913 158.254 150.148C158.595 150.383 159.04 150.5 159.589 150.5C160.214 150.5 160.711 150.367 161.078 150.102C161.449 149.833 161.635 149.511 161.635 149.136C161.635 148.833 161.529 148.58 161.317 148.375C161.105 148.167 160.779 148.011 160.339 147.909L158.885 147.568C158.086 147.379 157.499 147.085 157.124 146.688C156.752 146.286 156.567 145.784 156.567 145.182C156.567 144.689 156.705 144.254 156.982 143.875C157.262 143.496 157.643 143.199 158.124 142.983C158.608 142.767 159.158 142.659 159.771 142.659C160.635 142.659 161.313 142.848 161.805 143.227C162.302 143.606 162.654 144.106 162.862 144.727ZM168.926 142.773V143.909H164.222V142.773H168.926ZM165.631 151.5V141.568C165.631 141.068 165.748 140.652 165.983 140.318C166.218 139.985 166.523 139.735 166.898 139.568C167.273 139.402 167.669 139.318 168.085 139.318C168.415 139.318 168.684 139.345 168.892 139.398C169.1 139.451 169.256 139.5 169.358 139.545L168.972 140.705C168.903 140.682 168.809 140.653 168.688 140.619C168.57 140.585 168.415 140.568 168.222 140.568C167.778 140.568 167.458 140.68 167.261 140.903C167.068 141.127 166.972 141.455 166.972 141.886V151.5H165.631ZM176.305 147.932V142.773H177.646V151.5H176.305V150.023H176.214C176.01 150.466 175.692 150.843 175.26 151.153C174.828 151.46 174.283 151.614 173.624 151.614C173.078 151.614 172.593 151.494 172.169 151.256C171.745 151.013 171.411 150.65 171.169 150.165C170.927 149.676 170.805 149.061 170.805 148.318V142.773H172.146V148.227C172.146 148.864 172.324 149.371 172.68 149.75C173.04 150.129 173.499 150.318 174.055 150.318C174.389 150.318 174.728 150.233 175.072 150.062C175.421 149.892 175.713 149.631 175.947 149.278C176.186 148.926 176.305 148.477 176.305 147.932ZM181.443 139.864V151.5H180.102V139.864H181.443ZM185.672 139.864L185.558 148.227H184.24L184.126 139.864H185.672ZM184.899 151.591C184.619 151.591 184.378 151.491 184.178 151.29C183.977 151.089 183.876 150.848 183.876 150.568C183.876 150.288 183.977 150.047 184.178 149.847C184.378 149.646 184.619 149.545 184.899 149.545C185.179 149.545 185.42 149.646 185.621 149.847C185.821 150.047 185.922 150.288 185.922 150.568C185.922 150.754 185.875 150.924 185.78 151.08C185.689 151.235 185.566 151.36 185.411 151.455C185.259 151.545 185.089 151.591 184.899 151.591Z" fill="white"/>
<defs>
<filter id="filter0_d_1720_6630" x="28.8555" y="0.5" width="103.857" height="104" filterUnits="userSpaceOnUse" color-interpolation-filters="sRGB">
<feFlood flood-opacity="0" result="BackgroundImageFix"/>
<feColorMatrix in="SourceAlpha" type="matrix" values="0 0 0 0 0 0 0 0 0 0 0 0 0 0 0 0 0 0 127 0" result="hardAlpha"/>
<feOffset dx="-4" dy="4"/>
<feGaussianBlur stdDeviation="10"/>
<feComposite in2="hardAlpha" operator="out"/>
<feColorMatrix type="matrix" values="0 0 0 0 0 0 0 0 0 0 0 0 0 0 0 0 0 0 0.45 0"/>
<feBlend mode="normal" in2="BackgroundImageFix" result="effect1_dropShadow_1720_6630"/>
<feBlend mode="normal" in="SourceGraphic" in2="effect1_dropShadow_1720_6630" result="shape"/>
</filter>
<filter id="filter1_d_1720_6630" x="89.4668" y="60.6011" width="49.6777" height="24.8018" filterUnits="userSpaceOnUse" color-interpolation-filters="sRGB">
<feFlood flood-opacity="0" result="BackgroundImageFix"/>
<feColorMatrix in="SourceAlpha" type="matrix" values="0 0 0 0 0 0 0 0 0 0 0 0 0 0 0 0 0 0 127 0" result="hardAlpha"/>
<feOffset dy="4"/>
<feGaussianBlur stdDeviation="2"/>
<feComposite in2="hardAlpha" operator="out"/>
<feColorMatrix type="matrix" values="0 0 0 0 0 0 0 0 0 0 0 0 0 0 0 0 0 0 0.25 0"/>
<feBlend mode="normal" in2="BackgroundImageFix" result="effect1_dropShadow_1720_6630"/>
<feBlend mode="normal" in="SourceGraphic" in2="effect1_dropShadow_1720_6630" result="shape"/>
</filter>
</defs>
</svg>
