<svg width="107" height="32" viewBox="0 0 107 32" fill="none" xmlns="http://www.w3.org/2000/svg">
<path d="M14.5585 32.0001H2.40813C1.45346 32.0001 0.672363 31.219 0.672363 30.2643V21.5854C0.672363 20.6308 1.45346 19.8497 2.40813 19.8497H14.5585C15.5132 19.8497 16.2943 20.6308 16.2943 21.5854V30.2643C16.2943 31.219 15.5132 32.0001 14.5585 32.0001Z" fill="#DDDDDD"/>
<path d="M12.3892 24.623C13.1082 24.623 13.6911 24.0402 13.6911 23.3212C13.6911 22.6022 13.1082 22.0193 12.3892 22.0193C11.6703 22.0193 11.0874 22.6022 11.0874 23.3212C11.0874 24.0402 11.6703 24.623 12.3892 24.623Z" fill="white"/>
<path d="M6.74777 24.1461L2.84229 29.8307H10.6533L6.74777 24.1461Z" fill="#939393"/>
<path d="M11.5202 26.576L8.9165 29.8306H14.1238L11.5202 26.576Z" fill="#BDBDBD"/>
<path d="M53.1106 15.9848C53.1106 19.3783 52.4746 22.2653 51.2026 24.6458C49.9406 27.0263 48.2178 28.8446 46.0343 30.1007C43.8608 31.3466 41.4169 31.9696 38.7025 31.9696C35.9682 31.9696 33.5142 31.3416 31.3407 30.0855C29.1672 28.8294 27.4495 27.0111 26.1875 24.6306C24.9254 22.2501 24.2944 19.3682 24.2944 15.9848C24.2944 12.5913 24.9254 9.70434 26.1875 7.32384C27.4495 4.94334 29.1672 3.1301 31.3407 1.88414C33.5142 0.628047 35.9682 0 38.7025 0C41.4169 0 43.8608 0.628047 46.0343 1.88414C48.2178 3.1301 49.9406 4.94334 51.2026 7.32384C52.4746 9.70434 53.1106 12.5913 53.1106 15.9848ZM46.5151 15.9848C46.5151 13.7866 46.1895 11.9329 45.5385 10.4236C44.8975 8.91421 43.991 7.76955 42.8191 6.98955C41.6473 6.20956 40.2751 5.81956 38.7025 5.81956C37.13 5.81956 35.7578 6.20956 34.5859 6.98955C33.4141 7.76955 32.5026 8.91421 31.8516 10.4236C31.2105 11.9329 30.89 13.7866 30.89 15.9848C30.89 18.183 31.2105 20.0367 31.8516 21.5461C32.5026 23.0554 33.4141 24.2001 34.5859 24.9801C35.7578 25.76 37.13 26.15 38.7025 26.15C40.2751 26.15 41.6473 25.76 42.8191 24.9801C43.991 24.2001 44.8975 23.0554 45.5385 21.5461C46.1895 20.0367 46.5151 18.183 46.5151 15.9848Z" fill="url(#paint0_linear_2139_3691)"/>
<path d="M64.7385 18.0513V31.5442H58.3383V8.20513H64.4381V12.3229H64.7085C65.2193 10.9655 66.0757 9.89174 67.2776 9.10161C68.4795 8.30136 69.9369 7.90124 71.6496 7.90124C73.2522 7.90124 74.6494 8.25578 75.8413 8.96486C77.0333 9.67395 77.9597 10.6869 78.6208 12.0038C79.2819 13.3105 79.6124 14.8705 79.6124 16.6838V31.5442H73.2121V17.8386C73.2221 16.4103 72.8616 15.296 72.1304 14.4957C71.3992 13.6853 70.3926 13.2802 69.1106 13.2802C68.2492 13.2802 67.488 13.4676 66.8269 13.8424C66.1758 14.2172 65.665 14.7642 65.2944 15.4834C64.9339 16.1925 64.7486 17.0484 64.7385 18.0513Z" fill="url(#paint1_linear_2139_3691)"/>
<path d="M95.7024 32C93.3286 32 91.2854 31.5138 89.5726 30.5413C87.8699 29.5587 86.5578 28.1709 85.6363 26.378C84.7148 24.5749 84.2541 22.4425 84.2541 19.981C84.2541 17.5802 84.7148 15.4733 85.6363 13.66C86.5578 11.8468 87.8549 10.4337 89.5275 9.4207C91.2102 8.40772 93.1834 7.90124 95.447 7.90124C96.9695 7.90124 98.3867 8.14942 99.6989 8.64577C101.021 9.132 102.173 9.86641 103.154 10.849C104.146 11.8316 104.917 13.0674 105.468 14.5565C106.019 16.0355 106.294 17.7676 106.294 19.7531V21.5309H86.8082V17.5195H100.27C100.27 16.5875 100.069 15.7619 99.6688 15.0427C99.2682 14.3235 98.7123 13.7613 98.0011 13.3561C97.3 12.9408 96.4837 12.7331 95.5522 12.7331C94.5807 12.7331 93.7193 12.9611 92.9681 13.4169C92.2269 13.8626 91.6459 14.4653 91.2253 15.2251C90.8046 15.9747 90.5892 16.8104 90.5792 17.7322V21.5461C90.5792 22.7009 90.7896 23.6986 91.2102 24.5394C91.6409 25.3802 92.2469 26.0285 93.0282 26.4843C93.8094 26.9402 94.7359 27.1681 95.8076 27.1681C96.5188 27.1681 97.1698 27.0668 97.7607 26.8642C98.3517 26.6616 98.8575 26.3577 99.2782 25.9525C99.6989 25.5473 100.019 25.051 100.24 24.4634L106.159 24.8585C105.859 26.2969 105.243 27.553 104.311 28.6268C103.39 29.6904 102.198 30.521 100.736 31.1187C99.2832 31.7062 97.6055 32 95.7024 32Z" fill="url(#paint2_linear_2139_3691)"/>
<defs>
<linearGradient id="paint0_linear_2139_3691" x1="65.2944" y1="0" x2="65.2944" y2="32" gradientUnits="userSpaceOnUse">
<stop stop-color="#EDEDED"/>
<stop offset="0.463542" stop-color="#DFDFDF"/>
<stop offset="1" stop-color="#B7B7B7"/>
</linearGradient>
<linearGradient id="paint1_linear_2139_3691" x1="65.2944" y1="0" x2="65.2944" y2="32" gradientUnits="userSpaceOnUse">
<stop stop-color="#EDEDED"/>
<stop offset="0.463542" stop-color="#DFDFDF"/>
<stop offset="1" stop-color="#B7B7B7"/>
</linearGradient>
<linearGradient id="paint2_linear_2139_3691" x1="65.2944" y1="0" x2="65.2944" y2="32" gradientUnits="userSpaceOnUse">
<stop stop-color="#EDEDED"/>
<stop offset="0.463542" stop-color="#DFDFDF"/>
<stop offset="1" stop-color="#B7B7B7"/>
</linearGradient>
</defs>
</svg>
