<svg width="82" height="32" viewBox="0 0 82 32" fill="none" xmlns="http://www.w3.org/2000/svg">
<path d="M29.0662 15.9848C29.0662 19.3783 28.4246 22.2653 27.1415 24.6458C25.8686 27.0263 24.1309 28.8446 21.9284 30.1007C19.7361 31.3466 17.271 31.9696 14.5331 31.9696C11.775 31.9696 9.29976 31.3416 7.10742 30.0855C4.91508 28.8294 3.18243 27.0111 1.90946 24.6306C0.636485 22.2501 0 19.3682 0 15.9848C0 12.5913 0.636485 9.70434 1.90946 7.32384C3.18243 4.94334 4.91508 3.1301 7.10742 1.88414C9.29976 0.628047 11.775 0 14.5331 0C17.271 0 19.7361 0.628047 21.9284 1.88414C24.1309 3.1301 25.8686 4.94334 27.1415 7.32384C28.4246 9.70434 29.0662 12.5913 29.0662 15.9848ZM22.4134 15.9848C22.4134 13.7866 22.085 11.9329 21.4283 10.4236C20.7817 8.91421 19.8674 7.76955 18.6854 6.98956C17.5033 6.20956 16.1192 5.81956 14.5331 5.81956C12.9469 5.81956 11.5628 6.20956 10.3808 6.98956C9.19873 7.76955 8.27936 8.91421 7.62267 10.4236C6.97608 11.9329 6.65279 13.7866 6.65279 15.9848C6.65279 18.183 6.97608 20.0367 7.62267 21.5461C8.27936 23.0554 9.19873 24.2001 10.3808 24.9801C11.5628 25.76 12.9469 26.15 14.5331 26.15C16.1192 26.15 17.5033 25.76 18.6854 24.9801C19.8674 24.2001 20.7817 23.0554 21.4283 21.5461C22.085 20.0367 22.4134 18.183 22.4134 15.9848Z" fill="#D0D2D4"/>
<path d="M40.4393 18.0513V31.5442H33.9835V8.20513H40.1362V12.3229H40.409C40.9242 10.9655 41.788 9.89174 43.0004 9.10161C44.2127 8.30136 45.6827 7.90124 47.4103 7.90124C49.0268 7.90124 50.4361 8.25578 51.6384 8.96486C52.8406 9.67395 53.7752 10.6869 54.442 12.0038C55.1088 13.3105 55.4422 14.8705 55.4422 16.6838V31.5442H48.9864V17.8386C48.9965 16.4103 48.6328 15.296 47.8953 14.4957C47.1577 13.6853 46.1424 13.2802 44.8492 13.2802C43.9804 13.2802 43.2125 13.4676 42.5457 13.8424C41.8891 14.2172 41.3738 14.7642 41 15.4834C40.6363 16.1925 40.4494 17.0484 40.4393 18.0513Z" fill="#D0D2D4"/>
<path d="M71.3161 32C68.9217 32 66.8607 31.5138 65.1331 30.5413C63.4156 29.5587 62.0922 28.1709 61.1627 26.378C60.2332 24.5749 59.7685 22.4425 59.7685 19.981C59.7685 17.5802 60.2332 15.4733 61.1627 13.66C62.0922 11.8468 63.4005 10.4337 65.0877 9.4207C66.785 8.40772 68.7752 7.90124 71.0585 7.90124C72.5942 7.90124 74.0237 8.14942 75.3472 8.64577C76.6808 9.132 77.8426 9.86641 78.8327 10.849C79.8329 11.8316 80.6108 13.0674 81.1665 14.5565C81.7222 16.0355 82 17.7676 82 19.7531V21.5309H62.3447V17.5195H75.9231C75.9231 16.5875 75.721 15.762 75.3169 15.0427C74.9128 14.3235 74.3521 13.7613 73.6348 13.3561C72.9276 12.9408 72.1042 12.7331 71.1646 12.7331C70.1846 12.7331 69.3158 12.9611 68.558 13.4169C67.8104 13.8626 67.2244 14.4653 66.8001 15.2251C66.3758 15.9747 66.1586 16.8104 66.1485 17.7322V21.5461C66.1485 22.7009 66.3606 23.6986 66.785 24.5394C67.2194 25.3802 67.8306 26.0285 68.6187 26.4843C69.4067 26.9402 70.3412 27.1681 71.4222 27.1681C72.1395 27.1681 72.7962 27.0668 73.3923 26.8642C73.9884 26.6616 74.4986 26.3577 74.9229 25.9525C75.3472 25.5473 75.6705 25.051 75.8928 24.4634L81.8636 24.8585C81.5605 26.2969 80.9392 27.553 79.9996 28.6268C79.0701 29.6904 77.8679 30.5211 76.3929 31.1187C74.9279 31.7062 73.2357 32 71.3161 32Z" fill="#D0D2D4"/>
</svg>
