<svg width="49" height="48" viewBox="0 0 49 48" fill="none" xmlns="http://www.w3.org/2000/svg">
<path fill-rule="evenodd" clip-rule="evenodd" d="M0.5 24C0.5 17.6348 3.02856 11.5303 7.52944 7.02944C12.0303 2.52856 18.1348 0 24.5 0C30.8652 0 36.9697 2.52856 41.4706 7.02944C45.9714 11.5303 48.5 17.6348 48.5 24C48.5 30.3652 45.9714 36.4697 41.4706 40.9706C36.9697 45.4714 30.8652 48 24.5 48C18.1348 48 12.0303 45.4714 7.52944 40.9706C3.02856 36.4697 0.5 30.3652 0.5 24H0.5ZM23.1304 34.272L36.948 16.9984L34.452 15.0016L22.6696 29.7248L14.324 22.7712L12.276 25.2288L23.1304 34.2752V34.272Z" fill="#EB861E"/>
</svg>
